#!OML:ASF E:\motion texture\Top Level 1\Subject 1\Session 1\male.ASF
:FULLY-SPECIFIED
:DEGREES
331
root 5.0599 17.5364 6.52853 42.4333 -79.691 -31.3545
lowerback 4.87428 -1.62104 -1.82552
upperback 1.11299 -2.32463 -2.22177
thorax -1.60722 -1.1697 -1.11442
lowerneck -16.6832 -2.95571 -6.92774
upperneck 6.91387 -4.93857 18.6005
head 5.55364 -1.47814 6.63661
rclavicle 1.31198e-014 5.88403e-014
rhumerus -29.8163 4.71636 -90.0832
rradius 32.2929
rwrist 9.19832
rhand -23.2249 -35.367
rfingers 7.12502
rthumb 3.22591 -65.3224
lclavicle 1.31198e-014 5.88403e-014
lhumerus -31.5309 72.7374 59.5798
lradius 16.8492
lwrist -13.4465
lhand -11.88 52.604
lfingers 7.12502
lthumb 14.1726 82.1005
rfemur -37.4131 -1.01223 28.092
rtibia 27.0567
rfoot 0.228894 -9.78953
rtoes 18.5159
lfemur -13.1569 -5.02239 -10.1914
ltibia 46.463
lfoot -6.71949 -2.98052
ltoes -21.6922
332
root 4.89665 17.5558 6.52347 43.5924 -79.7224 -32.6624
lowerback 4.8301 -1.806 -1.66753
upperback 1.0588 -2.55582 -2.05154
thorax -1.63884 -1.28348 -1.01416
lowerneck -16.7706 -2.75347 -6.693
upperneck 7.28791 -4.73653 18.3849
head 5.64183 -1.36561 6.55191
rclavicle 1.55052e-014 0
rhumerus -29.7805 3.5754 -89.1856
rradius 31.1831
rwrist 9.92443
rhand -23.0271 -35.3123
rfingers 7.12502
rthumb 3.4169 -65.2647
lclavicle 1.55052e-014 0
lhumerus -24.1137 72.2185 66.858
lradius 16.8593
lwrist -12.4803
lhand -11.4719 52.6005
lfingers 7.12502
lthumb 14.5658 82.0691
rfemur -36.7637 -0.889955 28.4456
rtibia 27.2193
rfoot -0.00723903 -9.514
rtoes 18.8375
lfemur -13.5614 -4.93084 -9.94923
ltibia 47.4385
lfoot -5.97611 -2.97369
ltoes -21.4279
333
root 4.73487 17.5758 6.51847 44.7314 -79.7432 -33.9444
lowerback 4.78646 -1.98811 -1.51377
upperback 1.00395 -2.78374 -1.87981
thorax -1.67095 -1.39575 -0.910319
lowerneck -16.8548 -2.5567 -6.46678
upperneck 7.65597 -4.53926 18.1714
head 5.7299 -1.25613 6.46915
rclavicle -3.1408e-014 6.36111e-015
rhumerus -29.7506 2.40891 -88.2718
rradius 30.1133
rwrist 10.7041
rhand -22.8044 -35.2257
rfingers 7.12502
rthumb 3.63198 -65.1746
lclavicle -3.1408e-014 6.36111e-015
lhumerus -16.772 71.0972 74.0089
lradius 16.9388
lwrist -11.1962
lhand -11.0227 52.5939
lfingers 7.12502
lthumb 14.9986 82.0307
rfemur -36.0933 -0.77676 28.7918
rtibia 27.3346
rfoot -0.266137 -9.26869
rtoes 19.1128
lfemur -14.0052 -4.83883 -9.70725
ltibia 48.3877
lfoot -5.29672 -2.9379
ltoes -21.1462
334
root 4.5746 17.5963 6.51358 45.8463 -79.7564 -35.1966
lowerback 4.74509 -2.1663 -1.36505
upperback 0.947861 -3.00705 -1.70805
thorax -1.70509 -1.50585 -0.803918
lowerneck -16.9361 -2.36601 -6.25047
upperneck 8.01756 -4.34746 17.962
head 5.81785 -1.14999 6.38916
rclavicle 5.56597e-015 2.54444e-014
rhumerus -29.7303 1.21947 -87.3442
rradius 29.09
rwrist 11.5287
rhand -22.5719 -35.104
rfingers 7.12502
rthumb 3.85646 -65.0489
lclavicle 5.56597e-015 2.54444e-014
lhumerus -10.0619 69.4329 80.4507
lradius 17.0867
lwrist -9.65852
lhand -10.5264 52.5787
lfingers 7.12502
lthumb 15.4767 81.9792
rfemur -35.4036 -0.672538 29.1294
rtibia 27.4042
rfoot -0.546627 -9.05382
rtoes 19.3481
lfemur -14.4845 -4.74464 -9.46808
ltibia 49.3033
lfoot -4.68682 -2.87038
ltoes -20.8569
335
root 4.41585 17.6172 6.50889 46.9481 -79.7665 -36.4281
lowerback 4.70293 -2.33877 -1.22283
upperback 0.890162 -3.22339 -1.53676
thorax -1.73981 -1.61258 -0.69488
lowerneck -17.0131 -2.18154 -6.04427
upperneck 8.37087 -4.16095 17.7567
head 5.90475 -1.04728 6.31186
rclavicle 9.54166e-015 -1.90833e-014
rhumerus -29.7225 0.00820487 -86.4037
rradius 28.118
rwrist 12.3936
rhand -22.3245 -34.9474
rfingers 7.12502
rthumb 4.09546 -64.8878
lclavicle 9.54166e-015 -1.90833e-014
lhumerus -4.24489 67.2955 85.9044
lradius 17.3065
lwrist -7.90043
lhand -9.96818 52.5417
lfingers 7.12502
lthumb 16.0143 81.8999
rfemur -34.6989 -0.575774 29.4588
rtibia 27.4321
rfoot -0.856788 -8.86787
rtoes 19.531
lfemur -14.9963 -4.64413 -9.23379
ltibia 50.1779
lfoot -4.15066 -2.76867
ltoes -20.565
336
root 4.2585 17.6385 6.5044 48.0132 -79.7731 -37.6172
lowerback 4.6614 -2.50638 -1.08875
upperback 0.832173 -3.43401 -1.36677
thorax -1.77447 -1.71658 -0.583055
lowerneck -17.0878 -2.00373 -5.84966
upperneck 8.71638 -3.98007 17.556
head 5.99109 -0.948046 6.23774
rclavicle 1.03368e-014 0
rhumerus -29.7283 -1.2171 -85.4546
rradius 27.1983
rwrist 13.2909
rhand -22.0733 -34.7632
rfingers 7.12502
rthumb 4.33796 -64.6988
lclavicle 1.03368e-014 0
lhumerus 0.645614 64.7813 90.3206
lradius 17.5991
lwrist -5.97486
lhand -9.34521 52.467
lfingers 7.12502
lthumb 16.6141 81.7759
rfemur -33.9753 -0.489342 29.7772
rtibia 27.416
rfoot -1.2027 -8.7094
rtoes 19.6534
lfemur -15.5342 -4.54045 -9.00698
ltibia 51.0032
lfoot -3.69017 -2.6336
ltoes -20.2765
337
root 4.1027 17.6599 6.50017 49.0486 -79.7804 -38.7686
lowerback 4.61918 -2.6675 -0.964882
upperback 0.772397 -3.63683 -1.19878
thorax -1.80972 -1.81678 -0.468125
lowerneck -17.157 -1.83306 -5.66685
upperneck 9.05203 -3.80512 17.36
head 6.07562 -0.852686 6.16665
rclavicle -1.35174e-014 -4.6118e-014
rhumerus -29.752 -2.4521 -84.4996
rradius 26.3392
rwrist 14.2076
rhand -21.8141 -34.5583
rfingers 7.12502
rthumb 4.5883 -64.4886
lclavicle -1.35174e-014 -4.6118e-014
lhumerus 4.71894 61.9952 93.795
lradius 17.9601
lwrist -3.93765
lhand -8.66116 52.3317
lfingers 7.12502
lthumb 17.2726 81.5841
rfemur -33.2388 -0.410911 30.0829
rtibia 27.3596
rfoot -1.57519 -8.57284
rtoes 19.7168
lfemur -16.0988 -4.43025 -8.78982
ltibia 51.7751
lfoot -3.31181 -2.46497
ltoes -20.0018
338
root 3.94841 17.6812 6.49622 50.0676 -79.7916 -39.8957
lowerback 4.57757 -2.82131 -0.85114
upperback 0.710251 -3.83078 -1.03317
thorax -1.84687 -1.91264 -0.35051
lowerneck -17.2217 -1.66943 -5.49861
upperneck 9.37856 -3.6358 17.1714
head 6.15868 -0.760897 6.10006
rclavicle 2.38542e-014 -2.06736e-014
rhumerus -29.7963 -3.68677 -83.5438
rradius 25.5414
rwrist 15.1358
rhand -21.548 -34.339
rfingers 7.12502
rthumb 4.84519 -64.2636
lclavicle 2.38542e-014 -2.06736e-014
lhumerus 8.12595 59.0282 96.469
lradius 18.3858
lwrist -1.84174
lhand -7.91305 52.1253
lfingers 7.12502
lthumb 17.9925 81.313
rfemur -32.4908 -0.337157 30.3755
rtibia 27.2647
rfoot -1.96263 -8.45971
rtoes 19.7176
lfemur -16.6842 -4.31221 -8.58304
ltibia 52.4857
lfoot -3.01349 -2.2619
ltoes -19.7436
339
root 3.79559 17.7024 6.49259 51.0589 -79.8065 -40.9877
lowerback 4.53678 -2.96804 -0.7469
upperback 0.646737 -4.01616 -0.871651
thorax -1.8851 -2.0043 -0.232292
lowerneck -17.2849 -1.51327 -5.34321
upperneck 9.69601 -3.47309 16.9902
head 6.24083 -0.67298 6.03752
rclavicle 1.59028e-015 9.54166e-015
rhumerus -29.8606 -4.91365 -82.5938
rradius 24.8079
rwrist 16.0634
rhand -21.2824 -34.1129
rfingers 7.12502
rthumb 5.10163 -64.0315
lclavicle 1.59028e-015 9.54166e-015
lhumerus 11.0161 55.9485 98.4835
lradius 18.8703
lwrist 0.276285
lhand -7.11158 51.8198
lfingers 7.12502
lthumb 18.7635 80.9348
rfemur -31.7311 -0.269199 30.6531
rtibia 27.1295
rfoot -2.3534 -8.37132
rtoes 19.6574
lfemur -17.2874 -4.18962 -8.38772
ltibia 53.1297
lfoot -2.79388 -2.02538
ltoes -19.5034
340
root 3.64428 17.7234 6.48934 52.0631 -79.8306 -42.0834
lowerback 4.49606 -3.1053 -0.652486
upperback 0.579477 -4.18974 -0.713455
thorax -1.92638 -2.09012 -0.112647
lowerneck -17.344 -1.3645 -5.20246
upperneck 10.0056 -3.31648 16.8158
head 6.32178 -0.588829 5.97925
rclavicle 1.15295e-014 -9.54166e-015
rhumerus -29.949 -6.12244 -81.6533
rradius 24.1415
rwrist 16.9806
rhand -21.015 -33.8823
rfingers 7.12502
rthumb 5.35986 -63.7945
lclavicle 1.15295e-014 -9.54166e-015
lhumerus 13.5073 52.8172 99.9556
lradius 19.4105
lwrist 2.38415
lhand -6.26934 51.4098
lfingers 7.12502
lthumb 19.5734 80.4445
rfemur -30.9658 -0.198201 30.9165
rtibia 26.9612
rfoot -2.74153 -8.29938
rtoes 19.569
lfemur -17.9058 -4.05634 -8.20329
ltibia 53.7019
lfoot -2.65129 -1.75476
ltoes -19.281
341
root 3.49432 17.744 6.48658 53.0725 -79.8644 -43.1754
lowerback 4.4543 -3.23354 -0.566574
upperback 0.509715 -4.35205 -0.560363
thorax -1.969 -2.17038 0.00580822
lowerneck -17.4006 -1.22302 -5.07637
upperneck 10.3065 -3.16599 16.6499
head 6.40153 -0.508329 5.92571
rclavicle -1.98785e-014 -7.31528e-014
rhumerus -30.0602 -7.30628 -80.7284
rradius 23.5413
rwrist 17.8762
rhand -20.752 -33.6477
rfingers 7.12502
rthumb 5.61381 -63.5533
lclavicle -1.98785e-014 -7.31528e-014
lhumerus 15.7031 49.6875 100.987
lradius 19.9984
lwrist 4.44519
lhand -5.39584 50.8889
lfingers 7.12502
lthumb 20.413 79.8359
rfemur -30.1943 -0.127768 31.1645
rtibia 26.758
rfoot -3.11927 -8.23037
rtoes 19.4693
lfemur -18.535 -3.91513 -8.03209
ltibia 54.197
lfoot -2.58287 -1.45166
ltoes -19.0733
342
root 3.34587 17.7642 6.48425 54.1123 -79.9062 -44.2875
lowerback 4.41187 -3.35209 -0.486728
upperback 0.436874 -4.50202 -0.410739
thorax -2.01386 -2.24454 0.123385
lowerneck -17.4547 -1.08903 -4.96574
upperneck 10.5971 -3.02138 16.4921
head 6.47941 -0.43147 5.87693
rclavicle -7.55382e-015 1.74931e-014
rhumerus -30.1932 -8.4531 -79.8249
rradius 23.0086
rwrist 18.7358
rhand -20.4953 -33.412
rfingers 7.12502
rthumb 5.86164 -63.3109
lclavicle -7.55382e-015 1.74931e-014
lhumerus 17.6776 46.5995 101.657
lradius 20.6287
lwrist 6.43289
lhand -4.49054 50.2379
lfingers 7.12502
lthumb 21.2828 79.0893
rfemur -29.4219 -0.0520017 31.401
rtibia 26.5233
rfoot -3.48502 -8.16651
rtoes 19.3455
lfemur -19.1764 -3.764 -7.86832
ltibia 54.6135
lfoot -2.58724 -1.1184
ltoes -18.8797
343
root 3.19873 17.784 6.48242 55.1893 -79.9582 -45.4272
lowerback 4.36898 -3.46036 -0.412905
upperback 0.361165 -4.63888 -0.265838
thorax -2.06101 -2.31222 0.238752
lowerneck -17.5065 -0.962321 -4.86898
upperneck 10.8776 -2.88264 16.3416
head 6.55535 -0.358233 5.83227
rclavicle -3.53837e-014 2.8625e-014
rhumerus -30.3486 -9.55101 -78.9501
rradius 22.5444
rwrist 19.5462
rhand -20.245 -33.1801
rfingers 7.12502
rthumb 6.10326 -63.0722
lclavicle -3.53837e-014 2.8625e-014
lhumerus 19.4821 43.5836 102.024
lradius 21.2977
lwrist 8.32542
lhand -3.57127 49.4766
lfingers 7.12502
lthumb 22.1656 78.2259
rfemur -28.6488 0.0304302 31.6248
rtibia 26.2605
rfoot -3.83974 -8.11124
rtoes 19.1881
lfemur -19.8237 -3.60283 -7.71385
ltibia 54.9456
lfoot -2.66122 -0.756915
ltoes -18.6959
344
root 3.05289 17.8033 6.48115 56.3253 -80.0213 -46.6154
lowerback 4.32273 -3.55723 -0.345081
upperback 0.283655 -4.76108 -0.124807
thorax -2.10771 -2.37263 0.352441
lowerneck -17.556 -0.842762 -4.78671
upperneck 11.1456 -2.74906 16.1981
head 6.62844 -0.288394 5.7918
rclavicle -3.10104e-014 -4.77083e-015
rhumerus -30.5221 -10.592 -78.1089
rradius 22.1486
rwrist 20.2923
rhand -19.997 -32.9531
rfingers 7.12502
rthumb 6.34274 -62.8381
lclavicle -3.10104e-014 -4.77083e-015
lhumerus 21.1558 40.6624 102.136
lradius 22.002
lwrist 10.1072
lhand -2.65807 48.5909
lfingers 7.12502
lthumb 23.0421 77.2334
rfemur -27.8787 0.123862 31.8364
rtibia 25.9753
rfoot -4.1815 -8.06655
rtoes 19.0065
lfemur -20.4745 -3.43017 -7.56736
ltibia 55.1897
lfoot -2.80108 -0.369362
ltoes -18.52
